<?xml version="1.0" encoding="UTF-8"?>
<svg xmlns="http://www.w3.org/2000/svg" xmlns:xlink="http://www.w3.org/1999/xlink" width="100px" height="84px" viewBox="0 0 100 84" version="1.1">
<g id="surface1">
<path style=" stroke:none;fill-rule:nonzero;fill:rgb(4.313726%,23.921569%,56.862748%);fill-opacity:1;" d="M 81.988281 41.085938 C 81.988281 20.847656 65.652344 4.4375 45.5 4.4375 C 25.347656 4.4375 9.007812 20.847656 9.007812 41.085938 C 9.007812 61.328125 25.347656 77.738281 45.5 77.738281 C 65.652344 77.738281 81.988281 61.328125 81.988281 41.085938 Z M 81.988281 41.085938 "/>
<path style=" stroke:none;fill-rule:nonzero;fill:rgb(100%,100%,100%);fill-opacity:1;" d="M 43.753906 11.476562 C 43.753906 11.25 43.570312 11.066406 43.34375 11.066406 C 43.117188 11.066406 42.933594 11.25 42.933594 11.476562 C 42.933594 11.703125 43.117188 11.886719 43.34375 11.886719 C 43.570312 11.886719 43.753906 11.703125 43.753906 11.476562 Z M 43.753906 11.476562 "/>
<path style=" stroke:none;fill-rule:nonzero;fill:rgb(100%,100%,100%);fill-opacity:1;" d="M 47.953125 12.023438 C 47.953125 11.796875 47.769531 11.613281 47.542969 11.613281 C 47.320312 11.613281 47.136719 11.796875 47.136719 12.023438 C 47.136719 12.25 47.320312 12.4375 47.542969 12.4375 C 47.769531 12.4375 47.953125 12.25 47.953125 12.023438 Z M 47.953125 12.023438 "/>
<path style=" stroke:none;fill-rule:nonzero;fill:rgb(100%,100%,100%);fill-opacity:1;" d="M 53.460938 19.476562 C 53.460938 19.25 53.28125 19.0625 53.054688 19.0625 C 52.828125 19.0625 52.644531 19.25 52.644531 19.476562 C 52.644531 19.703125 52.828125 19.886719 53.054688 19.886719 C 53.28125 19.886719 53.460938 19.703125 53.460938 19.476562 Z M 53.460938 19.476562 "/>
<path style=" stroke:none;fill-rule:nonzero;fill:rgb(100%,100%,100%);fill-opacity:1;" d="M 23.246094 57.824219 C 23.246094 57.597656 23.0625 57.414062 22.835938 57.414062 C 22.609375 57.414062 22.425781 57.597656 22.425781 57.824219 C 22.425781 58.050781 22.609375 58.234375 22.835938 58.234375 C 23.0625 58.234375 23.246094 58.050781 23.246094 57.824219 Z M 23.246094 57.824219 "/>
<path style=" stroke:none;fill-rule:nonzero;fill:rgb(100%,100%,100%);fill-opacity:1;" d="M 24.308594 61.109375 C 24.308594 60.882812 24.125 60.699219 23.898438 60.699219 C 23.671875 60.699219 23.488281 60.882812 23.488281 61.109375 C 23.488281 61.335938 23.671875 61.519531 23.898438 61.519531 C 24.125 61.519531 24.308594 61.335938 24.308594 61.109375 Z M 24.308594 61.109375 "/>
<path style=" stroke:none;fill-rule:nonzero;fill:rgb(100%,100%,100%);fill-opacity:1;" d="M 19.132812 58.316406 C 19.132812 58.144531 18.996094 58.007812 18.828125 58.007812 C 18.65625 58.007812 18.519531 58.144531 18.519531 58.316406 C 18.519531 58.484375 18.65625 58.625 18.828125 58.625 C 18.996094 58.625 19.132812 58.484375 19.132812 58.316406 Z M 19.132812 58.316406 "/>
<path style=" stroke:none;fill-rule:nonzero;fill:rgb(100%,100%,100%);fill-opacity:1;" d="M 35.769531 64.773438 C 35.769531 64.601562 35.632812 64.464844 35.460938 64.464844 C 35.292969 64.464844 35.15625 64.601562 35.15625 64.773438 C 35.15625 64.945312 35.292969 65.082031 35.460938 65.082031 C 35.632812 65.082031 35.769531 64.945312 35.769531 64.773438 Z M 35.769531 64.773438 "/>
<path style=" stroke:none;fill-rule:nonzero;fill:rgb(100%,100%,100%);fill-opacity:1;" d="M 61.863281 59.328125 C 61.863281 59.160156 61.726562 59.023438 61.554688 59.023438 C 61.386719 59.023438 61.25 59.160156 61.25 59.328125 C 61.25 59.5 61.386719 59.636719 61.554688 59.636719 C 61.726562 59.636719 61.863281 59.5 61.863281 59.328125 Z M 61.863281 59.328125 "/>
<path style=" stroke:none;fill-rule:nonzero;fill:rgb(100%,100%,100%);fill-opacity:1;" d="M 69.445312 51.058594 C 69.445312 50.886719 69.308594 50.75 69.136719 50.75 C 68.96875 50.75 68.832031 50.886719 68.832031 51.058594 C 68.832031 51.226562 68.96875 51.367188 69.136719 51.367188 C 69.308594 51.367188 69.445312 51.226562 69.445312 51.058594 Z M 69.445312 51.058594 "/>
<path style=" stroke:none;fill-rule:nonzero;fill:rgb(100%,100%,100%);fill-opacity:1;" d="M 32.277344 21.878906 C 32.277344 21.707031 32.140625 21.570312 31.972656 21.570312 C 31.800781 21.570312 31.664062 21.707031 31.664062 21.878906 C 31.664062 22.046875 31.800781 22.1875 31.972656 22.1875 C 32.140625 22.1875 32.277344 22.046875 32.277344 21.878906 Z M 32.277344 21.878906 "/>
<path style=" stroke:none;fill-rule:nonzero;fill:rgb(100%,100%,100%);fill-opacity:1;" d="M 40.625 15.722656 C 40.625 15.550781 40.488281 15.414062 40.316406 15.414062 C 40.148438 15.414062 40.011719 15.550781 40.011719 15.722656 C 40.011719 15.890625 40.148438 16.03125 40.316406 16.03125 C 40.488281 16.03125 40.625 15.890625 40.625 15.722656 Z M 40.625 15.722656 "/>
<path style=" stroke:none;fill-rule:nonzero;fill:rgb(100%,100%,100%);fill-opacity:1;" d="M 39.71875 15.121094 C 39.71875 14.949219 39.582031 14.8125 39.410156 14.8125 C 39.242188 14.8125 39.105469 14.949219 39.105469 15.121094 C 39.105469 15.289062 39.242188 15.425781 39.410156 15.425781 C 39.582031 15.425781 39.71875 15.289062 39.71875 15.121094 Z M 39.71875 15.121094 "/>
<path style=" stroke:none;fill-rule:nonzero;fill:rgb(100%,100%,100%);fill-opacity:1;" d="M 38.898438 14.515625 C 38.898438 14.347656 38.761719 14.210938 38.59375 14.210938 C 38.421875 14.210938 38.285156 14.347656 38.285156 14.515625 C 38.285156 14.6875 38.421875 14.824219 38.59375 14.824219 C 38.761719 14.824219 38.898438 14.6875 38.898438 14.515625 Z M 38.898438 14.515625 "/>
<path style=" stroke:none;fill-rule:nonzero;fill:rgb(100%,100%,100%);fill-opacity:1;" d="M 33.585938 23.46875 C 33.585938 23.296875 33.449219 23.160156 33.28125 23.160156 C 33.113281 23.160156 32.972656 23.296875 32.972656 23.46875 C 32.972656 23.636719 33.113281 23.777344 33.28125 23.777344 C 33.449219 23.777344 33.585938 23.636719 33.585938 23.46875 Z M 33.585938 23.46875 "/>
<path style=" stroke:none;fill-rule:nonzero;fill:rgb(100%,100%,100%);fill-opacity:1;" d="M 45.878906 7.449219 C 45.878906 7.28125 45.742188 7.144531 45.574219 7.144531 C 45.40625 7.144531 45.265625 7.28125 45.265625 7.449219 C 45.265625 7.621094 45.40625 7.757812 45.574219 7.757812 C 45.742188 7.757812 45.878906 7.621094 45.878906 7.449219 Z M 45.878906 7.449219 "/>
<path style=" stroke:none;fill-rule:nonzero;fill:rgb(100%,100%,100%);fill-opacity:1;" d="M 47.898438 16.324219 C 47.898438 16.15625 47.761719 16.015625 47.59375 16.015625 C 47.421875 16.015625 47.285156 16.15625 47.285156 16.324219 C 47.285156 16.496094 47.421875 16.632812 47.59375 16.632812 C 47.761719 16.632812 47.898438 16.496094 47.898438 16.324219 Z M 47.898438 16.324219 "/>
<path style=" stroke:none;fill-rule:nonzero;fill:rgb(100%,100%,100%);fill-opacity:1;" d="M 44.714844 14.59375 C 44.714844 14.421875 44.578125 14.285156 44.40625 14.285156 C 44.238281 14.285156 44.101562 14.421875 44.101562 14.59375 C 44.101562 14.761719 44.238281 14.898438 44.40625 14.898438 C 44.578125 14.898438 44.714844 14.761719 44.714844 14.59375 Z M 44.714844 14.59375 "/>
<path style=" stroke:none;fill-rule:nonzero;fill:rgb(100%,100%,100%);fill-opacity:1;" d="M 39.261719 16.949219 C 39.261719 16.777344 39.121094 16.640625 38.953125 16.640625 C 38.785156 16.640625 38.648438 16.777344 38.648438 16.949219 C 38.648438 17.117188 38.785156 17.257812 38.953125 17.257812 C 39.121094 17.257812 39.261719 17.117188 39.261719 16.949219 Z M 39.261719 16.949219 "/>
<path style=" stroke:none;fill-rule:nonzero;fill:rgb(100%,100%,100%);fill-opacity:1;" d="M 63.316406 67.457031 C 63.316406 67.289062 63.175781 67.152344 63.007812 67.152344 C 62.839844 67.152344 62.703125 67.289062 62.703125 67.457031 C 62.703125 67.628906 62.839844 67.765625 63.007812 67.765625 C 63.175781 67.765625 63.316406 67.628906 63.316406 67.457031 Z M 63.316406 67.457031 "/>
<path style=" stroke:none;fill-rule:nonzero;fill:rgb(100%,100%,100%);fill-opacity:1;" d="M 22.625 59.90625 C 22.625 59.734375 22.488281 59.597656 22.316406 59.597656 C 22.148438 59.597656 22.011719 59.734375 22.011719 59.90625 C 22.011719 60.074219 22.148438 60.214844 22.316406 60.214844 C 22.488281 60.214844 22.625 60.074219 22.625 59.90625 Z M 22.625 59.90625 "/>
<path style=" stroke:none;fill-rule:nonzero;fill:rgb(100%,100%,100%);fill-opacity:1;" d="M 43.953125 63.875 C 43.953125 63.707031 43.8125 63.566406 43.644531 63.566406 C 43.476562 63.566406 43.335938 63.707031 43.335938 63.875 C 43.335938 64.046875 43.476562 64.183594 43.644531 64.183594 C 43.8125 64.183594 43.953125 64.046875 43.953125 63.875 Z M 43.953125 63.875 "/>
<path style=" stroke:none;fill-rule:nonzero;fill:rgb(100%,100%,100%);fill-opacity:1;" d="M 28.972656 59.660156 C 28.972656 59.488281 28.835938 59.351562 28.664062 59.351562 C 28.496094 59.351562 28.355469 59.488281 28.355469 59.660156 C 28.355469 59.828125 28.496094 59.96875 28.664062 59.96875 C 28.835938 59.96875 28.972656 59.828125 28.972656 59.660156 Z M 28.972656 59.660156 "/>
<path style=" stroke:none;fill-rule:nonzero;fill:rgb(100%,100%,100%);fill-opacity:1;" d="M 31.625 64.007812 C 31.625 63.835938 31.488281 63.699219 31.316406 63.699219 C 31.148438 63.699219 31.011719 63.835938 31.011719 64.007812 C 31.011719 64.175781 31.148438 64.316406 31.316406 64.316406 C 31.488281 64.316406 31.625 64.175781 31.625 64.007812 Z M 31.625 64.007812 "/>
<path style=" stroke:none;fill-rule:nonzero;fill:rgb(100%,100%,100%);fill-opacity:1;" d="M 51.152344 61.269531 C 51.152344 61.097656 51.015625 60.960938 50.84375 60.960938 C 50.675781 60.960938 50.539062 61.097656 50.539062 61.269531 C 50.539062 61.4375 50.675781 61.574219 50.84375 61.574219 C 51.015625 61.574219 51.152344 61.4375 51.152344 61.269531 Z M 51.152344 61.269531 "/>
<path style=" stroke:none;fill-rule:nonzero;fill:rgb(100%,100%,100%);fill-opacity:1;" d="M 61.917969 55.167969 C 61.917969 54.996094 61.777344 54.859375 61.609375 54.859375 C 61.441406 54.859375 61.304688 54.996094 61.304688 55.167969 C 61.304688 55.335938 61.441406 55.472656 61.609375 55.472656 C 61.777344 55.472656 61.917969 55.335938 61.917969 55.167969 Z M 61.917969 55.167969 "/>
<path style=" stroke:none;fill-rule:nonzero;fill:rgb(100%,100%,100%);fill-opacity:1;" d="M 70.078125 58.910156 C 70.078125 58.742188 69.941406 58.605469 69.773438 58.605469 C 69.601562 58.605469 69.464844 58.742188 69.464844 58.910156 C 69.464844 59.082031 69.601562 59.21875 69.773438 59.21875 C 69.941406 59.21875 70.078125 59.082031 70.078125 58.910156 Z M 70.078125 58.910156 "/>
<path style=" stroke:none;fill-rule:nonzero;fill:rgb(100%,100%,100%);fill-opacity:1;" d="M 72.859375 60.699219 C 72.859375 60.527344 72.722656 60.390625 72.554688 60.390625 C 72.382812 60.390625 72.246094 60.527344 72.246094 60.699219 C 72.246094 60.867188 72.382812 61.007812 72.554688 61.007812 C 72.722656 61.007812 72.859375 60.867188 72.859375 60.699219 Z M 72.859375 60.699219 "/>
<path style=" stroke:none;fill-rule:nonzero;fill:rgb(100%,100%,100%);fill-opacity:1;" d="M 73.316406 55.824219 C 73.316406 55.652344 73.179688 55.515625 73.011719 55.515625 C 72.839844 55.515625 72.703125 55.652344 72.703125 55.824219 C 72.703125 55.992188 72.839844 56.132812 73.011719 56.132812 C 73.179688 56.132812 73.316406 55.992188 73.316406 55.824219 Z M 73.316406 55.824219 "/>
<path style=" stroke:none;fill-rule:nonzero;fill:rgb(100%,100%,100%);fill-opacity:1;" d="M 32.734375 48.921875 C 32.734375 48.75 32.597656 48.613281 32.429688 48.613281 C 32.257812 48.613281 32.121094 48.75 32.121094 48.921875 C 32.121094 49.089844 32.257812 49.230469 32.429688 49.230469 C 32.597656 49.230469 32.734375 49.089844 32.734375 48.921875 Z M 32.734375 48.921875 "/>
<path style=" stroke:none;fill-rule:nonzero;fill:rgb(100%,100%,100%);fill-opacity:1;" d="M 32.953125 55.988281 C 32.953125 55.761719 32.769531 55.578125 32.542969 55.578125 C 32.320312 55.578125 32.136719 55.761719 32.136719 55.988281 C 32.136719 56.214844 32.320312 56.398438 32.542969 56.398438 C 32.769531 56.398438 32.953125 56.214844 32.953125 55.988281 Z M 32.953125 55.988281 "/>
<path style=" stroke:none;fill-rule:nonzero;fill:rgb(100%,100%,100%);fill-opacity:1;" d="M 35.40625 61.191406 C 35.40625 60.964844 35.226562 60.78125 35 60.78125 C 34.773438 60.78125 34.589844 60.964844 34.589844 61.191406 C 34.589844 61.417969 34.773438 61.601562 35 61.601562 C 35.226562 61.601562 35.40625 61.417969 35.40625 61.191406 Z M 35.40625 61.191406 "/>
<path style=" stroke:none;fill-rule:nonzero;fill:rgb(100%,100%,100%);fill-opacity:1;" d="M 64.808594 55.769531 C 64.808594 55.542969 64.625 55.359375 64.398438 55.359375 C 64.171875 55.359375 63.988281 55.542969 63.988281 55.769531 C 63.988281 55.996094 64.171875 56.179688 64.398438 56.179688 C 64.625 56.179688 64.808594 55.996094 64.808594 55.769531 Z M 64.808594 55.769531 "/>
<path style=" stroke:none;fill-rule:nonzero;fill:rgb(100%,100%,100%);fill-opacity:1;" d="M 75.390625 55.167969 C 75.390625 54.9375 75.207031 54.753906 74.980469 54.753906 C 74.753906 54.753906 74.570312 54.9375 74.570312 55.167969 C 74.570312 55.394531 74.753906 55.578125 74.980469 55.578125 C 75.207031 55.578125 75.390625 55.394531 75.390625 55.167969 Z M 75.390625 55.167969 "/>
<path style=" stroke:none;fill-rule:nonzero;fill:rgb(100%,100%,100%);fill-opacity:1;" d="M 70.152344 52.921875 C 70.152344 52.691406 69.96875 52.507812 69.746094 52.507812 C 69.519531 52.507812 69.335938 52.691406 69.335938 52.921875 C 69.335938 53.148438 69.519531 53.332031 69.746094 53.332031 C 69.96875 53.332031 70.152344 53.148438 70.152344 52.921875 Z M 70.152344 52.921875 "/>
<path style=" stroke:none;fill-rule:nonzero;fill:rgb(100%,100%,100%);fill-opacity:1;" d="M 64.808594 53.140625 C 64.808594 52.914062 64.625 52.726562 64.398438 52.726562 C 64.171875 52.726562 63.988281 52.914062 63.988281 53.140625 C 63.988281 53.367188 64.171875 53.550781 64.398438 53.550781 C 64.625 53.550781 64.808594 53.367188 64.808594 53.140625 Z M 64.808594 53.140625 "/>
<path style=" stroke:none;fill-rule:nonzero;fill:rgb(100%,100%,100%);fill-opacity:1;" d="M 53.371094 11.21875 L 54.390625 11.121094 L 53.375 11.0625 C 53.34375 10.867188 53.183594 10.710938 52.988281 10.6875 L 52.890625 9.671875 L 52.832031 10.695312 C 52.648438 10.738281 52.507812 10.890625 52.484375 11.082031 L 51.445312 11.175781 L 52.492188 11.234375 C 52.53125 11.410156 52.671875 11.546875 52.851562 11.582031 L 52.945312 12.628906 L 53 11.582031 C 53.1875 11.550781 53.335938 11.40625 53.371094 11.21875 Z M 53.371094 11.21875 "/>
<path style=" stroke:none;fill-rule:nonzero;fill:rgb(100%,100%,100%);fill-opacity:1;" d="M 36.203125 22.59375 L 37.222656 22.496094 L 36.207031 22.4375 C 36.175781 22.242188 36.015625 22.085938 35.816406 22.0625 L 35.722656 21.042969 L 35.664062 22.070312 C 35.480469 22.109375 35.339844 22.265625 35.316406 22.457031 L 34.277344 22.550781 L 35.324219 22.609375 C 35.359375 22.785156 35.503906 22.921875 35.679688 22.957031 L 35.777344 24.003906 L 35.832031 22.957031 C 36.019531 22.925781 36.167969 22.78125 36.203125 22.59375 Z M 36.203125 22.59375 "/>
<path style=" stroke:none;fill-rule:nonzero;fill:rgb(100%,100%,100%);fill-opacity:1;" d="M 74.234375 52.667969 L 75.253906 52.570312 L 74.238281 52.511719 C 74.207031 52.316406 74.046875 52.160156 73.851562 52.136719 L 73.753906 51.117188 L 73.695312 52.144531 C 73.511719 52.183594 73.371094 52.339844 73.347656 52.53125 L 72.308594 52.625 L 73.355469 52.683594 C 73.394531 52.859375 73.535156 52.996094 73.714844 53.03125 L 73.808594 54.078125 L 73.863281 53.03125 C 74.050781 53 74.199219 52.855469 74.234375 52.667969 Z M 74.234375 52.667969 "/>
<path style=" stroke:none;fill-rule:nonzero;fill:rgb(100%,100%,100%);fill-opacity:1;" d="M 32.765625 68.390625 L 33.785156 68.292969 L 32.769531 68.238281 C 32.738281 68.039062 32.578125 67.886719 32.382812 67.859375 L 32.285156 66.84375 L 32.226562 67.867188 C 32.042969 67.910156 31.902344 68.0625 31.878906 68.253906 L 30.839844 68.351562 L 31.886719 68.40625 C 31.925781 68.582031 32.066406 68.722656 32.246094 68.753906 L 32.339844 69.800781 L 32.394531 68.753906 C 32.582031 68.726562 32.734375 68.578125 32.765625 68.390625 Z M 32.765625 68.390625 "/>
<path style=" stroke:none;fill-rule:nonzero;fill:rgb(100%,100%,100%);fill-opacity:1;" d="M 71.003906 60.722656 L 72.019531 60.625 L 71.003906 60.566406 C 70.972656 60.371094 70.816406 60.214844 70.617188 60.191406 L 70.519531 59.171875 L 70.464844 60.199219 C 70.28125 60.238281 70.140625 60.394531 70.117188 60.585938 L 69.078125 60.679688 L 70.125 60.738281 C 70.160156 60.914062 70.304688 61.050781 70.480469 61.082031 L 70.578125 62.132812 L 70.632812 61.085938 C 70.820312 61.054688 70.96875 60.910156 71.003906 60.722656 Z M 71.003906 60.722656 "/>
<path style=" stroke:none;fill-rule:nonzero;fill:rgb(98.823529%,23.921569%,12.941177%);fill-opacity:1;" d="M 54.152344 32.308594 C 49.910156 33.964844 45.773438 35.441406 42.28125 36.539062 C 35.183594 38.769531 15.769531 44.8125 4.042969 52.425781 L 5.027344 52.808594 C 12.171875 48.757812 16.816406 47.484375 21.28125 46.070312 C 26.132812 44.539062 41.828125 40.847656 48.933594 38.839844 C 51.335938 38.164062 54.148438 37.273438 57.125 36.191406 C 56.433594 35.222656 55.703125 34.25 54.933594 33.277344 C 54.675781 32.949219 54.414062 32.625 54.152344 32.308594 Z M 59.335938 39.484375 C 58.308594 40.179688 57.449219 40.738281 56.84375 41.085938 C 53.355469 43.113281 36.335938 54.78125 32.464844 57.46875 C 28.59375 60.152344 17.84375 70.339844 14.683594 73.300781 L 14.574219 74.503906 C 24.773438 65.300781 27.972656 63.03125 32.027344 59.933594 C 37.046875 56.097656 47.425781 49.003906 50.953125 46.730469 C 54.328125 44.554688 57.367188 42.558594 60.097656 40.730469 C 60.054688 40.652344 60.011719 40.578125 59.964844 40.503906 C 59.761719 40.164062 59.550781 39.824219 59.335938 39.484375 Z M 75.28125 22.570312 C 70.3125 25.496094 62.480469 29.027344 54.882812 32.023438 C 55.0625 32.246094 55.246094 32.472656 55.425781 32.699219 C 56.273438 33.773438 57.074219 34.855469 57.828125 35.9375 C 63.800781 33.726562 70.355469 30.761719 75.554688 27.171875 C 73.078125 29.527344 64.886719 35.675781 59.894531 39.101562 C 60.152344 39.523438 60.398438 39.945312 60.640625 40.363281 C 68.207031 35.277344 73.296875 31.535156 76.261719 29.035156 C 80.355469 25.582031 89.683594 17.859375 93.226562 7.503906 C 87.007812 15.449219 79.65625 19.996094 75.28125 22.570312 Z M 75.28125 22.570312 "/>
<path style=" stroke:none;fill-rule:nonzero;fill:rgb(100%,100%,100%);fill-opacity:1;" d="M 40.804688 50.160156 C 40 49.144531 38.886719 47.78125 38.050781 46.726562 C 36.933594 45.3125 35.898438 43.886719 34.953125 42.460938 C 34.644531 42.539062 34.335938 42.617188 34.027344 42.695312 C 35.171875 44.484375 36.441406 46.277344 37.824219 48.023438 C 38.835938 49.304688 39.753906 50.332031 40.226562 50.972656 C 40.320312 51.101562 40.511719 51.390625 40.765625 51.769531 C 41.058594 51.570312 41.355469 51.367188 41.65625 51.164062 C 41.367188 50.84375 41.082031 50.511719 40.804688 50.160156 Z M 46.675781 55.515625 C 46.015625 54.886719 44.414062 53.839844 42.746094 52.265625 C 42.375 52.519531 42.003906 52.777344 41.632812 53.035156 C 42.710938 54.558594 44.175781 56.433594 45.324219 56.976562 C 47.054688 57.800781 47.523438 56.320312 46.675781 55.515625 Z M 55.425781 32.699219 C 45.886719 20.640625 34.234375 14.015625 29.210938 18.027344 C 25.308594 21.140625 26.910156 30.238281 32.289062 39.796875 C 32.566406 39.703125 32.84375 39.609375 33.117188 39.515625 C 27.6875 30.203125 26.203125 21.546875 29.882812 18.609375 C 34.507812 14.917969 45.671875 21.570312 54.933594 33.277344 C 56.851562 35.699219 58.539062 38.132812 59.964844 40.503906 C 65.429688 49.589844 67.105469 57.804688 63.332031 61.15625 C 62.175781 62.183594 58.644531 62.585938 54.019531 60.496094 C 53.953125 60.578125 54.058594 60.796875 54.140625 60.851562 C 58.132812 62.464844 61.957031 63.078125 63.886719 61.539062 C 68.527344 57.835938 64.960938 44.757812 55.425781 32.699219 Z M 55.425781 32.699219 "/>
<path style=" stroke:none;fill-rule:nonzero;fill:rgb(100%,100%,100%);fill-opacity:1;" d="M 14.515625 34.128906 L 20.625 34.128906 L 25.753906 42.867188 C 25.753906 42.867188 25.753906 36.539062 25.753906 36.046875 C 25.753906 35.28125 24.785156 34.28125 24.445312 34.128906 C 24.855469 34.128906 28.425781 34.128906 28.671875 34.128906 C 28.414062 34.199219 27.582031 35.210938 27.582031 36.046875 C 27.582031 36.457031 27.582031 45.632812 27.582031 46.070312 C 27.582031 46.6875 28.46875 47.539062 28.890625 47.867188 L 23 47.867188 L 17.789062 39.085938 C 17.789062 39.085938 17.789062 45.632812 17.789062 45.988281 C 17.789062 46.675781 18.457031 47.332031 19.152344 47.894531 L 14.652344 47.894531 C 15.292969 47.621094 15.90625 46.757812 15.960938 46.070312 C 16.015625 45.386719 15.960938 36.554688 15.960938 36.171875 C 15.960938 35.335938 15.15625 34.648438 14.515625 34.128906 Z M 14.515625 34.128906 "/>
<path style=" stroke:none;fill-rule:nonzero;fill:rgb(100%,100%,100%);fill-opacity:1;" d="M 70.398438 47.867188 L 78.527344 47.867188 C 78.078125 47.757812 77.570312 47.222656 77.300781 46.511719 C 77.027344 45.796875 72.71875 34.128906 72.71875 34.128906 L 69.628906 34.128906 C 68.75 34.761719 67.8125 35.429688 66.808594 36.136719 C 66.804688 36.160156 66.804688 36.1875 66.800781 36.210938 C 66.664062 37.03125 64.246094 45.828125 64.097656 46.265625 C 63.894531 46.867188 62.84375 47.539062 62.421875 47.894531 L 66.800781 47.894531 C 66.363281 47.402344 66.007812 46.921875 66.089844 46.375 C 66.171875 45.824219 66.417969 44.730469 66.417969 44.730469 L 70.945312 44.730469 C 71.148438 45.277344 71.300781 45.769531 71.382812 46.238281 C 71.476562 46.796875 70.902344 47.429688 70.398438 47.867188 Z M 66.828125 42.976562 L 68.355469 37.964844 L 70.371094 42.976562 Z M 66.136719 34.628906 C 66.363281 34.464844 66.589844 34.296875 66.8125 34.128906 L 65.625 34.128906 C 65.746094 34.238281 65.941406 34.410156 66.136719 34.628906 Z M 66.136719 34.628906 "/>
<path style=" stroke:none;fill-rule:nonzero;fill:rgb(100%,100%,100%);fill-opacity:1;" d="M 35.054688 46.375 C 35.136719 45.824219 35.382812 44.730469 35.382812 44.730469 L 39.90625 44.730469 C 40.113281 45.277344 40.265625 45.769531 40.34375 46.238281 C 40.441406 46.796875 39.867188 47.429688 39.363281 47.867188 L 46.519531 47.867188 C 46.667969 47.765625 46.816406 47.664062 46.964844 47.566406 C 46.6875 47.320312 46.429688 46.949219 46.261719 46.511719 C 45.988281 45.796875 41.679688 34.128906 41.679688 34.128906 L 34.589844 34.128906 C 34.929688 34.445312 35.914062 35.292969 35.761719 36.210938 C 35.628906 37.03125 33.210938 45.828125 33.0625 46.265625 C 32.859375 46.867188 31.808594 47.539062 31.386719 47.894531 L 35.761719 47.894531 C 35.328125 47.402344 34.972656 46.921875 35.054688 46.375 Z M 37.316406 37.964844 L 39.335938 42.976562 L 35.789062 42.976562 Z M 37.316406 37.964844 "/>
<path style=" stroke:none;fill-rule:nonzero;fill:rgb(100%,100%,100%);fill-opacity:1;" d="M 59.769531 40.949219 C 58.4375 41.839844 57.027344 42.773438 55.542969 43.746094 C 56.210938 44.070312 56.738281 44.476562 56.789062 45.003906 C 56.886719 45.992188 54.910156 46.46875 53.121094 46.265625 C 52.765625 46.222656 52.414062 46.128906 52.078125 46.003906 C 51.710938 46.242188 51.335938 46.484375 50.953125 46.730469 C 50.566406 46.980469 50.097656 47.285156 49.5625 47.640625 L 49.5625 49.058594 C 49.917969 48.359375 50.695312 47.734375 51.296875 47.703125 C 51.554688 47.6875 52.453125 48.523438 56.164062 48.316406 C 57.964844 48.21875 61.441406 46.292969 61.386719 44.074219 C 61.355469 42.761719 60.671875 41.738281 59.769531 40.949219 Z M 49.5625 44.375 L 49.5625 45.816406 C 49.890625 45.597656 50.214844 45.382812 50.53125 45.171875 C 50.03125 44.820312 49.679688 44.496094 49.5625 44.375 Z M 58.503906 40.042969 C 58.15625 39.835938 57.808594 39.65625 57.472656 39.496094 C 55.726562 38.675781 53.898438 38.523438 53.515625 37.414062 C 53.25 36.632812 54.007812 35.910156 55.863281 35.9375 C 57.71875 35.964844 59.433594 37.074219 59.898438 37.46875 L 59.898438 33.9375 C 59.761719 34.074219 59.164062 34.761719 58.617188 34.648438 C 57.566406 34.429688 55.78125 34.144531 53.734375 34.15625 C 51.390625 34.167969 49.371094 35.992188 49.304688 38.292969 C 49.207031 41.511719 51.773438 42.386719 53.21875 42.894531 C 53.367188 42.945312 53.535156 43 53.722656 43.0625 C 55.105469 42.15625 56.203125 41.457031 56.84375 41.085938 C 57.277344 40.835938 57.839844 40.480469 58.503906 40.042969 Z M 58.503906 40.042969 "/>
</g>
</svg>
